<?xml version="1.0" standalone="no"?>
<!DOCTYPE svg PUBLIC "-//W3C//DTD SVG 20010904//EN"
 "http://www.w3.org/TR/2001/REC-SVG-20010904/DTD/svg10.dtd">
<svg version="1.0" xmlns="http://www.w3.org/2000/svg"
 width="225.000000pt" height="225.000000pt" viewBox="0 0 225.000000 225.000000"
 preserveAspectRatio="xMidYMid meet">
<metadata>
Created by potrace 1.14, written by Peter Selinger 2001-2017
</metadata>
<g transform="translate(0.000000,225.000000) scale(0.100000,-0.100000)"
fill="#000000" stroke="none">
<path d="M1136 2105 c-8 -70 4 -335 16 -335 16 0 16 366 0 382 -5 5 -12 -14
-16 -47z"/>
<path d="M1092 2094 c-5 -11 -8 -28 -7 -39 2 -11 6 -58 9 -105 17 -230 32
-240 28 -18 -4 160 -11 198 -30 162z"/>
<path d="M1180 1973 c0 -70 -3 -145 -6 -165 -4 -24 -3 -38 4 -38 23 0 37 319
15 327 -10 4 -13 -25 -13 -124z"/>
<path d="M1051 2047 c-9 -11 -7 -45 8 -147 11 -72 23 -135 27 -138 9 -9 -6
281 -15 291 -4 4 -13 2 -20 -6z"/>
<path d="M1217 1953 c-14 -228 -5 -252 24 -61 15 100 17 109 13 48 -2 -41 -7
-100 -11 -130 -10 -94 13 -44 35 75 l20 110 -35 33 c-20 17 -37 32 -38 32 -1
0 -5 -48 -8 -107z"/>
<path d="M1012 2011 c-11 -6 -9 -29 8 -117 11 -60 25 -118 30 -129 8 -19 9
-19 9 2 1 36 -21 227 -28 240 -4 7 -12 9 -19 4z"/>
<path d="M973 1979 c-14 -18 38 -241 53 -227 6 6 -23 193 -34 222 -6 15 -10
16 -19 5z"/>
<path d="M1287 1873 c-20 -124 -20 -131 -8 -118 13 15 54 193 47 210 -13 34
-23 10 -39 -92z"/>
<path d="M934 1946 c-3 -8 6 -54 21 -103 34 -116 35 -117 41 -110 8 8 -39 227
-49 227 -4 0 -10 -6 -13 -14z"/>
<path d="M1326 1868 c-10 -46 -20 -94 -23 -108 -4 -17 -2 -22 5 -15 14 14 64
184 57 195 -14 22 -22 6 -39 -72z"/>
<path d="M896 1921 c-7 -10 52 -180 67 -196 11 -11 7 9 -25 128 -19 73 -29 89
-42 68z"/>
<path d="M1362 1853 c-32 -119 -36 -139 -25 -128 15 16 74 186 67 196 -13 21
-23 5 -42 -68z"/>
<path d="M863 1903 c-12 -4 64 -203 78 -203 6 0 -55 199 -63 205 -2 1 -8 0
-15 -2z"/>
<path d="M1416 1899 c-2 -8 -16 -51 -31 -97 -44 -136 -17 -109 40 41 13 35 15
51 7 59 -8 8 -13 8 -16 -3z"/>
<path d="M826 1872 c-6 -10 83 -197 90 -189 7 7 -67 197 -77 197 -4 0 -10 -4
-13 -8z"/>
<path d="M1421 1798 c-18 -46 -35 -89 -38 -95 -3 -7 -1 -13 5 -13 16 0 87 169
75 181 -6 6 -20 -18 -42 -73z"/>
<path d="M797 1844 c-7 -7 84 -184 95 -184 4 0 -4 26 -18 58 -15 31 -33 74
-42 95 -15 36 -22 43 -35 31z"/>
<path d="M1446 1764 c-21 -47 -35 -88 -33 -90 5 -6 87 140 87 155 0 5 -4 12
-8 15 -5 3 -26 -33 -46 -80z"/>
<path d="M766 1812 c-5 -8 95 -175 101 -168 6 5 -80 176 -89 176 -4 0 -9 -3
-12 -8z"/>
<path d="M1471 1733 c-23 -47 -40 -87 -38 -89 5 -5 81 119 92 147 4 10 2 19
-2 22 -5 3 -28 -33 -52 -80z"/>
<path d="M745 1780 c-3 -6 17 -46 47 -89 29 -43 54 -75 56 -71 2 6 -80 154
-93 168 -2 2 -6 -2 -10 -8z"/>
<path d="M1492 1703 c-23 -42 -40 -78 -38 -80 2 -3 27 29 55 70 44 66 52 88
32 87 -3 0 -25 -35 -49 -77z"/>
<path d="M720 1740 c0 -14 102 -150 113 -150 4 0 -5 19 -20 43 -16 23 -40 59
-53 79 -25 37 -40 48 -40 28z"/>
<path d="M1534 1703 c-17 -26 -38 -60 -48 -75 -36 -55 0 -26 47 38 30 41 45
70 40 75 -6 6 -21 -9 -39 -38z"/>
<path d="M700 1707 c0 -14 111 -150 117 -143 5 4 -105 156 -112 156 -3 0 -5
-6 -5 -13z"/>
<path d="M1535 1644 c-26 -36 -45 -67 -43 -69 5 -5 108 116 108 127 0 22 -23
1 -65 -58z"/>
<path d="M680 1669 c0 -6 27 -39 61 -72 67 -69 67 -60 -1 26 -44 56 -60 68
-60 46z"/>
<path d="M1559 1623 c-63 -81 -68 -96 -12 -38 64 66 76 82 65 89 -4 2 -28 -20
-53 -51z"/>
<path d="M665 1640 c-4 -7 -3 -15 1 -19 5 -4 36 -32 69 -62 60 -55 53 -40 -22
45 -26 29 -44 43 -48 36z"/>
<path d="M1173 1610 c0 -25 2 -35 4 -22 2 12 2 32 0 45 -2 12 -4 2 -4 -23z"/>
<path d="M1122 1610 c0 -19 2 -27 5 -17 2 9 2 25 0 35 -3 9 -5 1 -5 -18z"/>
<path d="M1221 1624 c0 -11 3 -14 6 -6 3 7 2 16 -1 19 -3 4 -6 -2 -5 -13z"/>
<path d="M1584 1597 c-71 -76 -80 -93 -14 -30 35 34 62 65 59 67 -3 3 -23 -13
-45 -37z"/>
<path d="M1071 1614 c0 -11 3 -14 6 -6 3 7 2 16 -1 19 -3 4 -6 -2 -5 -13z"/>
<path d="M1193 1590 c0 -25 2 -35 4 -22 2 12 2 32 0 45 -2 12 -4 2 -4 -23z"/>
<path d="M1052 1600 c0 -14 2 -19 5 -12 2 6 2 18 0 25 -3 6 -5 1 -5 -13z"/>
<path d="M1103 1585 c0 -22 2 -30 4 -17 2 12 2 30 0 40 -3 9 -5 -1 -4 -23z"/>
<path d="M1242 1600 c0 -14 2 -19 5 -12 2 6 2 18 0 25 -3 6 -5 1 -5 -13z"/>
<path d="M652 1598 c2 -6 33 -36 69 -67 l64 -55 -65 67 c-66 69 -75 76 -68 55z"/>
<path d="M1031 1584 c0 -11 3 -14 6 -6 3 7 2 16 -1 19 -3 4 -6 -2 -5 -13z"/>
<path d="M1261 1584 c0 -11 3 -14 6 -6 3 7 2 16 -1 19 -3 4 -6 -2 -5 -13z"/>
<path d="M1580 1543 l-55 -56 58 47 c47 40 69 66 54 66 -1 0 -27 -26 -57 -57z"/>
<path d="M1082 1565 c0 -16 2 -22 5 -12 2 9 2 23 0 30 -3 6 -5 -1 -5 -18z"/>
<path d="M1212 1570 c0 -14 2 -19 5 -12 2 6 2 18 0 25 -3 6 -5 1 -5 -13z"/>
<path d="M1306 1575 c-9 -26 -7 -32 5 -12 6 10 9 21 6 23 -2 3 -7 -2 -11 -11z"/>
<path d="M640 1562 c0 -5 26 -29 57 -53 87 -67 94 -68 24 -3 -68 62 -81 72
-81 56z"/>
<path d="M1061 1554 c0 -11 3 -14 6 -6 3 7 2 16 -1 19 -3 4 -6 -2 -5 -13z"/>
<path d="M1232 1550 c0 -14 2 -19 5 -12 2 6 2 18 0 25 -3 6 -5 1 -5 -13z"/>
<path d="M1587 1515 c-32 -30 -55 -55 -52 -55 13 0 124 94 119 101 -7 12 -1
16 -67 -46z"/>
<path d="M1041 1544 c0 -11 3 -14 6 -6 3 7 2 16 -1 19 -3 4 -6 -2 -5 -13z"/>
<path d="M632 1529 c4 -12 138 -114 138 -105 0 2 -32 30 -71 61 -40 32 -70 52
-67 44z"/>
<path d="M1090 1518 c0 -5 -4 -6 -10 -3 -5 3 -10 1 -10 -6 0 -7 -3 -10 -6 -6
-3 3 -14 -3 -25 -14 -11 -11 -25 -17 -31 -13 -7 5 -8 3 -3 -6 5 -8 2 -17 -6
-24 -21 -17 -47 -52 -31 -42 11 7 11 4 1 -13 -12 -18 -15 -19 -30 -5 -13 12
-19 12 -25 3 -4 -7 -3 -10 3 -6 6 4 15 1 20 -6 12 -15 11 -92 -1 -104 -5 -5
-6 -2 -1 7 6 12 5 13 -5 3 -8 -7 -15 -20 -16 -28 -2 -13 0 -14 12 -4 8 6 17 9
20 6 3 -3 -4 -14 -15 -24 -12 -9 -21 -22 -21 -27 0 -6 5 -5 12 2 7 7 15 12 20
12 11 0 -3 -33 -21 -48 -9 -8 -10 -10 -2 -6 21 10 26 -8 23 -75 -3 -56 -5 -61
-20 -49 -14 11 -14 9 1 -8 9 -11 17 -24 17 -29 0 -4 -8 -1 -17 6 -16 12 -16
11 0 -8 21 -24 21 -108 0 -108 -6 0 -15 -3 -19 -7 -3 -4 3 -6 14 -3 20 3 20 0
18 -158 -1 -131 -5 -168 -19 -194 -9 -18 -17 -45 -16 -60 0 -23 4 -20 19 22
25 69 25 23 0 -51 -15 -42 -20 -78 -18 -130 l3 -72 41 0 40 0 28 171 c40 246
40 248 -3 79 -21 -84 -41 -155 -44 -159 -11 -10 -8 6 23 151 32 147 35 192 5
79 -17 -67 -35 -103 -35 -71 0 9 11 55 25 103 14 48 24 89 22 92 -2 2 -10 -17
-17 -42 -13 -45 -30 -69 -30 -42 0 8 7 31 15 50 19 46 19 56 -1 31 -15 -19
-15 -19 -11 1 3 11 8 29 13 39 5 14 4 17 -5 11 -10 -6 -11 -2 -5 16 4 13 7 42
7 64 -1 22 4 46 11 54 8 12 8 13 -2 7 -18 -11 -15 431 4 495 23 78 101 139
169 133 43 -3 70 -11 94 -26 28 -17 64 -74 56 -88 -4 -6 -1 -9 6 -8 22 5 28
-51 29 -265 1 -117 2 -242 4 -279 2 -38 -1 -68 -6 -68 -5 0 -4 -9 2 -19 13
-26 13 -44 -2 -35 -7 5 -8 3 -3 -6 4 -7 9 -45 11 -84 l2 -71 -19 40 c-20 43
-20 34 6 -62 25 -91 12 -101 -15 -10 -13 42 -25 76 -27 74 -2 -3 10 -66 27
-141 43 -195 35 -199 -15 -6 -24 91 -44 160 -44 154 -1 -10 43 -281 55 -336 5
-24 10 -27 45 -26 45 0 44 -1 24 64 -24 78 -15 86 10 9 l23 -70 1 47 c1 27
-10 77 -25 118 -14 39 -24 79 -22 88 2 9 13 -10 25 -43 16 -46 22 -54 22 -32
1 15 -10 53 -23 85 -21 51 -24 71 -23 199 0 99 4 140 11 136 6 -3 5 0 -1 8
-19 19 -16 28 8 24 12 -3 18 -1 15 3 -4 4 -13 7 -19 7 -8 0 -12 31 -13 100 -1
55 -2 127 -3 160 -2 33 -2 71 -2 84 1 24 1 24 24 5 19 -17 19 -16 -2 9 -26 28
-28 35 -32 96 -2 22 1 35 8 34 17 -3 36 24 23 32 -6 4 -9 1 -8 -5 2 -7 -5 -14
-15 -15 -20 -4 -42 29 -31 47 4 7 3 8 -4 4 -20 -12 -36 37 -22 64 6 12 9 24 7
27 -3 2 -8 -5 -12 -18 -6 -17 -9 -19 -17 -8 -7 10 -8 7 -4 -11 5 -21 4 -21 -9
5 -8 17 -14 23 -15 15 0 -13 -1 -13 -10 0 -9 13 -10 13 -10 0 0 -9 -3 -11 -8
-5 -9 13 -24 16 -89 19 -29 2 -53 -1 -53 -6z m-160 -1174 c-18 -62 -25 -47 -9
18 7 29 14 47 17 40 2 -8 -1 -34 -8 -58z"/>
<path d="M1605 1489 c-75 -61 -77 -67 -7 -20 34 23 62 46 62 51 0 14 1 14 -55
-31z"/>
<path d="M950 1490 c6 -11 13 -20 16 -20 2 0 0 9 -6 20 -6 11 -13 20 -16 20
-2 0 0 -9 6 -20z"/>
<path d="M632 1488 c4 -11 138 -103 138 -94 0 2 -32 27 -71 55 -39 29 -69 46
-67 39z"/>
<path d="M1330 1470 c-6 -11 -8 -20 -6 -20 3 0 10 9 16 20 6 11 8 20 6 20 -3
0 -10 -9 -16 -20z"/>
<path d="M1601 1449 c-30 -22 -57 -42 -60 -46 -12 -12 80 43 107 64 47 38 10
24 -47 -18z"/>
<path d="M1161 1464 c0 -11 3 -14 6 -6 3 7 2 16 -1 19 -3 4 -6 -2 -5 -13z"/>
<path d="M947 1453 c5 -12 3 -14 -8 -8 -8 5 -11 4 -6 0 4 -5 14 -10 22 -11 12
-2 12 2 5 17 -13 23 -22 25 -13 2z"/>
<path d="M620 1453 c0 -5 33 -25 73 -47 85 -45 84 -42 -1 14 -65 42 -72 45
-72 33z"/>
<path d="M1359 1443 c-13 -16 -12 -17 4 -4 9 7 17 15 17 17 0 8 -8 3 -21 -13z"/>
<path d="M1615 1424 c-61 -41 -66 -50 -10 -19 57 32 74 45 59 45 -5 0 -27 -12
-49 -26z"/>
<path d="M925 1420 c10 -11 20 -20 23 -20 3 0 -3 9 -13 20 -10 11 -20 20 -23
20 -3 0 3 -9 13 -20z"/>
<path d="M1370 1425 c-7 -8 -17 -12 -23 -8 -6 4 -7 1 -3 -6 6 -9 13 -8 27 5
10 9 19 19 19 21 0 7 -8 2 -20 -12z"/>
<path d="M620 1415 c0 -8 61 -37 67 -31 3 2 -9 12 -26 20 -31 17 -41 19 -41
11z"/>
<path d="M1608 1386 c-84 -48 -84 -54 0 -12 66 33 85 47 65 46 -5 0 -34 -15
-65 -34z"/>
<path d="M620 1382 c0 -7 81 -44 86 -39 2 2 -17 13 -41 25 -25 12 -45 18 -45
14z"/>
<path d="M700 1375 c0 -7 61 -37 66 -33 2 3 -12 12 -31 21 -19 9 -35 15 -35
12z"/>
<path d="M1610 1355 c-25 -13 -40 -24 -35 -24 6 0 30 11 55 24 25 13 41 24 35
24 -5 0 -30 -11 -55 -24z"/>
<path d="M1389 1365 c-1 -3 -2 -13 -3 -22 -1 -10 -5 -23 -9 -29 -4 -7 -1 -16
6 -22 10 -8 13 -1 13 34 0 38 -3 55 -7 39z"/>
<path d="M630 1341 c8 -5 26 -12 40 -15 l25 -7 -25 15 c-14 9 -32 15 -40 15
-13 0 -13 -1 0 -8z"/>
<path d="M1630 1334 l-25 -15 25 7 c14 3 32 10 40 15 13 7 13 8 0 8 -8 0 -26
-6 -40 -15z"/>
<path d="M740 1326 c0 -2 7 -7 16 -10 8 -3 12 -2 9 4 -6 10 -25 14 -25 6z"/>
<path d="M645 1305 c17 -8 37 -14 45 -14 8 0 -1 7 -20 14 -46 18 -64 17 -25 0z"/>
<path d="M710 1310 c8 -5 20 -10 25 -10 6 0 3 5 -5 10 -8 5 -19 10 -25 10 -5
0 -3 -5 5 -10z"/>
<path d="M913 1305 c0 -8 4 -12 9 -9 5 3 6 10 3 15 -9 13 -12 11 -12 -6z"/>
<path d="M1570 1310 c-8 -5 -10 -10 -5 -10 6 0 17 5 25 10 8 5 11 10 5 10 -5
0 -17 -5 -25 -10z"/>
<path d="M1630 1305 c-19 -7 -28 -14 -20 -14 8 0 29 6 45 14 39 17 21 18 -25
0z"/>
<path d="M1560 1280 c-8 -5 -10 -10 -5 -10 6 0 17 5 25 10 8 5 11 10 5 10 -5
0 -17 -5 -25 -10z"/>
<path d="M1625 1275 c-40 -14 -40 -14 -5 -8 19 3 42 9 50 14 22 12 1 9 -45 -6z"/>
<path d="M665 1270 c11 -5 27 -9 35 -9 9 0 8 4 -5 9 -11 5 -27 9 -35 9 -9 0
-8 -4 5 -9z"/>
<path d="M728 1253 c7 -3 16 -2 19 1 4 3 -2 6 -13 5 -11 0 -14 -3 -6 -6z"/>
<path d="M658 1243 c6 -2 18 -2 25 0 6 3 1 5 -13 5 -14 0 -19 -2 -12 -5z"/>
<path d="M1618 1243 c6 -2 18 -2 25 0 6 3 1 5 -13 5 -14 0 -19 -2 -12 -5z"/>
<path d="M708 1233 c7 -3 16 -2 19 1 4 3 -2 6 -13 5 -11 0 -14 -3 -6 -6z"/>
<path d="M1578 1233 c7 -3 16 -2 19 1 4 3 -2 6 -13 5 -11 0 -14 -3 -6 -6z"/>
<path d="M628 1223 c6 -2 18 -2 25 0 6 3 1 5 -13 5 -14 0 -19 -2 -12 -5z"/>
<path d="M1658 1223 c7 -3 16 -2 19 1 4 3 -2 6 -13 5 -11 0 -14 -3 -6 -6z"/>
<path d="M678 1213 c6 -2 18 -2 25 0 6 3 1 5 -13 5 -14 0 -19 -2 -12 -5z"/>
<path d="M1598 1213 c6 -2 18 -2 25 0 6 3 1 5 -13 5 -14 0 -19 -2 -12 -5z"/>
<path d="M738 1203 c7 -3 16 -2 19 1 4 3 -2 6 -13 5 -11 0 -14 -3 -6 -6z"/>
<path d="M633 1193 c9 -2 23 -2 30 0 6 3 -1 5 -18 5 -16 0 -22 -2 -12 -5z"/>
<path d="M1633 1193 c9 -2 25 -2 35 0 9 3 1 5 -18 5 -19 0 -27 -2 -17 -5z"/>
<path d="M713 1183 c9 -2 25 -2 35 0 9 3 1 5 -18 5 -19 0 -27 -2 -17 -5z"/>
<path d="M1563 1183 c9 -2 23 -2 30 0 6 3 -1 5 -18 5 -16 0 -22 -2 -12 -5z"/>
<path d="M1131 1158 c-9 -25 3 -48 24 -48 19 0 27 28 15 51 -14 25 -29 24 -39
-3z"/>
<path d="M648 1163 c17 -2 47 -2 65 0 17 2 3 4 -33 4 -36 0 -50 -2 -32 -4z"/>
<path d="M1598 1163 c18 -2 45 -2 60 0 15 2 0 4 -33 4 -33 0 -45 -2 -27 -4z"/>
<path d="M1658 1143 c7 -3 16 -2 19 1 4 3 -2 6 -13 5 -11 0 -14 -3 -6 -6z"/>
<path d="M647 1113 c18 -2 50 -2 70 0 21 2 7 4 -32 4 -38 0 -55 -2 -38 -4z"/>
<path d="M1577 1113 c18 -2 50 -2 70 0 21 2 7 4 -32 4 -38 0 -55 -2 -38 -4z"/>
<path d="M713 1093 c9 -2 25 -2 35 0 9 3 1 5 -18 5 -19 0 -27 -2 -17 -5z"/>
<path d="M1563 1093 c9 -2 23 -2 30 0 6 3 -1 5 -18 5 -16 0 -22 -2 -12 -5z"/>
<path d="M628 1083 c12 -2 30 -2 40 0 9 3 -1 5 -23 4 -22 0 -30 -2 -17 -4z"/>
<path d="M910 1081 c0 -5 5 -13 10 -16 6 -3 10 -2 10 4 0 5 -4 13 -10 16 -5 3
-10 2 -10 -4z"/>
<path d="M1633 1083 c9 -2 25 -2 35 0 9 3 1 5 -18 5 -19 0 -27 -2 -17 -5z"/>
<path d="M738 1073 c7 -3 16 -2 19 1 4 3 -2 6 -13 5 -11 0 -14 -3 -6 -6z"/>
<path d="M683 1063 c9 -2 23 -2 30 0 6 3 -1 5 -18 5 -16 0 -22 -2 -12 -5z"/>
<path d="M1598 1063 c6 -2 18 -2 25 0 6 3 1 5 -13 5 -14 0 -19 -2 -12 -5z"/>
<path d="M618 1053 c6 -2 18 -2 25 0 6 3 1 5 -13 5 -14 0 -19 -2 -12 -5z"/>
<path d="M1658 1053 c7 -3 16 -2 19 1 4 3 -2 6 -13 5 -11 0 -14 -3 -6 -6z"/>
<path d="M708 1043 c7 -3 16 -2 19 1 4 3 -2 6 -13 5 -11 0 -14 -3 -6 -6z"/>
<path d="M1578 1043 c7 -3 16 -2 19 1 4 3 -2 6 -13 5 -11 0 -14 -3 -6 -6z"/>
<path d="M630 1030 c-20 -6 -21 -8 -5 -8 11 0 31 4 45 8 20 6 21 8 5 8 -11 0
-31 -4 -45 -8z"/>
<path d="M1389 1023 c-13 -16 -12 -17 4 -4 16 13 21 21 13 21 -2 0 -10 -8 -17
-17z"/>
<path d="M1618 1033 c6 -2 18 -2 25 0 6 3 1 5 -13 5 -14 0 -19 -2 -12 -5z"/>
<path d="M728 1023 c7 -3 16 -2 19 1 4 3 -2 6 -13 5 -11 0 -14 -3 -6 -6z"/>
<path d="M1558 1023 c7 -3 16 -2 19 1 4 3 -2 6 -13 5 -11 0 -14 -3 -6 -6z"/>
<path d="M1598 1013 c7 -3 16 -2 19 1 4 3 -2 6 -13 5 -11 0 -14 -3 -6 -6z"/>
<path d="M658 1003 c7 -3 16 -2 19 1 4 3 -2 6 -13 5 -11 0 -14 -3 -6 -6z"/>
<path d="M1645 1000 c27 -12 43 -12 25 0 -8 5 -22 9 -30 9 -10 0 -8 -3 5 -9z"/>
<path d="M618 993 c7 -3 16 -2 19 1 4 3 -2 6 -13 5 -11 0 -14 -3 -6 -6z"/>
<path d="M1630 975 c46 -18 64 -17 25 0 -16 8 -37 14 -45 14 -8 0 1 -7 20 -14z"/>
<path d="M625 970 c-13 -5 -14 -9 -5 -9 8 0 24 4 35 9 13 5 14 9 5 9 -8 0 -24
-4 -35 -9z"/>
<path d="M710 970 c-8 -5 -10 -10 -5 -10 6 0 17 5 25 10 8 5 11 10 5 10 -5 0
-17 -5 -25 -10z"/>
<path d="M1389 978 c-7 -19 -3 -60 7 -69 13 -11 15 5 3 26 -4 6 -5 18 -4 28 3
14 -2 25 -6 15z"/>
<path d="M1570 970 c8 -5 20 -10 25 -10 6 0 3 5 -5 10 -8 5 -19 10 -25 10 -5
0 -3 -5 5 -10z"/>
<path d="M643 944 c-18 -8 -33 -16 -33 -19 0 -5 70 22 79 30 8 9 -14 4 -46
-11z"/>
<path d="M1630 946 c14 -9 32 -15 40 -15 13 0 13 1 0 8 -8 5 -26 12 -40 15
l-25 7 25 -15z"/>
<path d="M1624 919 c32 -17 60 -28 63 -26 4 5 -104 57 -116 57 -3 -1 20 -15
53 -31z"/>
<path d="M683 902 c-40 -20 -73 -41 -73 -45 0 -8 125 56 145 74 15 14 4 10
-72 -29z"/>
<path d="M1551 927 c21 -17 139 -76 139 -70 0 8 -122 73 -137 73 -3 0 -4 -1
-2 -3z"/>
<path d="M631 909 c-13 -5 -21 -12 -18 -15 3 -3 18 1 34 10 31 17 21 20 -16 5z"/>
<path d="M734 894 c-18 -14 -18 -15 4 -4 12 6 22 13 22 15 0 8 -5 6 -26 -11z"/>
<path d="M1299 893 c-12 -16 -12 -17 2 -6 9 7 20 9 24 5 5 -4 5 -1 1 6 -9 16
-11 15 -27 -5z"/>
<path d="M1565 888 c11 -6 44 -26 73 -44 28 -19 52 -30 52 -25 0 9 -124 81
-138 81 -4 0 2 -6 13 -12z"/>
<path d="M658 854 c-27 -13 -48 -29 -48 -34 0 -5 23 4 50 21 28 17 50 33 50
35 0 6 0 6 -52 -22z"/>
<path d="M683 834 c-40 -26 -73 -50 -73 -56 0 -11 8 -7 85 50 95 70 91 71 -12
6z"/>
<path d="M906 862 c-3 -5 1 -9 9 -9 8 0 12 4 9 9 -3 4 -7 8 -9 8 -2 0 -6 -4
-9 -8z"/>
<path d="M1570 858 c31 -30 123 -91 119 -79 -3 7 -34 31 -69 53 -36 22 -58 34
-50 26z"/>
<path d="M685 799 c-64 -46 -87 -69 -70 -69 7 0 145 112 145 117 0 5 -3 3 -75
-48z"/>
<path d="M1556 832 c29 -26 111 -90 122 -96 6 -4 12 -3 12 3 0 9 -125 101
-137 101 -4 0 -3 -4 3 -8z"/>
<path d="M1311 807 c17 -32 22 -35 14 -8 -6 18 -4 22 6 16 8 -5 10 -4 6 0 -4
5 -14 10 -22 11 -12 2 -13 -2 -4 -19z"/>
<path d="M909 803 c-13 -16 -12 -17 4 -4 9 7 17 15 17 17 0 8 -8 3 -21 -13z"/>
<path d="M678 754 c-38 -30 -68 -60 -68 -66 0 -13 18 0 92 69 74 69 61 67 -24
-3z"/>
<path d="M996 795 c-9 -26 -7 -32 5 -12 6 10 9 21 6 23 -2 3 -7 -2 -11 -11z"/>
<path d="M1112 790 c0 -14 2 -19 5 -12 2 6 2 18 0 25 -3 6 -5 1 -5 -13z"/>
<path d="M1391 793 c7 -12 15 -20 18 -17 3 2 -3 12 -13 22 -17 16 -18 16 -5
-5z"/>
<path d="M1570 785 c45 -49 120 -107 120 -93 0 7 -33 38 -72 67 -42 31 -62 42
-48 26z"/>
<path d="M1201 784 c0 -11 3 -14 6 -6 3 7 2 16 -1 19 -3 4 -6 -2 -5 -13z"/>
<path d="M912 770 c-18 -29 -15 -38 4 -12 9 13 14 25 12 27 -2 2 -9 -5 -16
-15z"/>
<path d="M1131 774 c0 -11 3 -14 6 -6 3 7 2 16 -1 19 -3 4 -6 -2 -5 -13z"/>
<path d="M680 714 c-41 -36 -77 -73 -78 -82 -2 -9 33 19 77 63 74 73 86 85 79
85 -2 0 -37 -30 -78 -66z"/>
<path d="M1310 765 c0 -5 5 -17 10 -25 5 -8 10 -10 10 -5 0 6 -5 17 -10 25 -5
8 -10 11 -10 5z"/>
<path d="M1391 753 c7 -12 15 -20 18 -17 3 2 -3 12 -13 22 -17 16 -18 16 -5
-5z"/>
<path d="M1615 701 c38 -39 72 -66 74 -59 2 6 -16 29 -40 50 -86 75 -103 80
-34 9z"/>
<path d="M912 725 c-17 -37 -14 -45 4 -12 9 16 14 31 11 33 -2 2 -9 -7 -15
-21z"/>
<path d="M1231 734 c0 -11 3 -14 6 -6 3 7 2 16 -1 19 -3 4 -6 -2 -5 -13z"/>
<path d="M677 664 c-48 -45 -77 -80 -75 -90 2 -12 27 10 82 70 43 48 77 88 75
90 -2 2 -39 -29 -82 -70z"/>
<path d="M1061 724 c0 -11 3 -14 6 -6 3 7 2 16 -1 19 -3 4 -6 -2 -5 -13z"/>
<path d="M1212 720 c0 -14 2 -19 5 -12 2 6 2 18 0 25 -3 6 -5 1 -5 -13z"/>
<path d="M1082 710 c0 -14 2 -19 5 -12 2 6 2 18 0 25 -3 6 -5 1 -5 -13z"/>
<path d="M1173 675 c0 -33 2 -45 4 -27 2 18 2 45 0 60 -2 15 -4 0 -4 -33z"/>
<path d="M1192 705 c0 -16 2 -22 5 -12 2 9 2 23 0 30 -3 6 -5 -1 -5 -18z"/>
<path d="M1550 724 c1 -5 32 -43 70 -84 55 -59 70 -70 70 -54 0 14 -24 43 -70
84 -38 34 -70 58 -70 54z"/>
<path d="M1102 680 c0 -19 2 -27 5 -17 2 9 2 25 0 35 -3 9 -5 1 -5 -18z"/>
<path d="M1396 697 c3 -10 9 -15 12 -12 3 3 0 11 -7 18 -10 9 -11 8 -5 -6z"/>
<path d="M677 615 c-56 -60 -78 -90 -75 -106 2 -17 17 -3 76 70 64 80 92 122
81 120 -2 0 -39 -38 -82 -84z"/>
<path d="M1241 684 c0 -11 3 -14 6 -6 3 7 2 16 -1 19 -3 4 -6 -2 -5 -13z"/>
<path d="M1291 684 c0 -11 3 -14 6 -6 3 7 2 16 -1 19 -3 4 -6 -2 -5 -13z"/>
<path d="M912 665 c-17 -37 -14 -45 4 -12 9 16 14 31 11 33 -2 2 -9 -7 -15
-21z"/>
<path d="M1052 670 c0 -14 2 -19 5 -12 2 6 2 18 0 25 -3 6 -5 1 -5 -13z"/>
<path d="M1550 683 c0 -6 30 -48 66 -92 37 -45 64 -84 62 -87 -3 -2 -32 28
-64 67 -32 39 -60 66 -62 60 -2 -6 29 -56 69 -112 70 -96 90 -110 73 -51 -4
15 -6 38 -6 52 1 18 -18 46 -68 100 -39 41 -70 70 -70 63z"/>
<path d="M1112 505 c-7 -99 -16 -199 -19 -222 -5 -34 -3 -43 10 -43 12 0 16
27 22 173 10 249 2 303 -13 92z"/>
<path d="M1222 655 c0 -16 2 -22 5 -12 2 9 2 23 0 30 -3 6 -5 -1 -5 -18z"/>
<path d="M1271 664 c0 -11 3 -14 6 -6 3 7 2 16 -1 19 -3 4 -6 -2 -5 -13z"/>
<path d="M1320 675 c0 -5 5 -17 10 -25 5 -8 10 -10 10 -5 0 6 -5 17 -10 25 -5
8 -10 11 -10 5z"/>
<path d="M1380 678 c0 -11 30 -78 35 -78 3 0 -2 17 -10 37 -15 36 -25 52 -25
41z"/>
<path d="M1021 654 c0 -11 3 -14 6 -6 3 7 2 16 -1 19 -3 4 -6 -2 -5 -13z"/>
<path d="M1072 645 c0 -16 2 -22 5 -12 2 9 2 23 0 30 -3 6 -5 -1 -5 -18z"/>
<path d="M678 557 c-58 -68 -78 -100 -78 -121 0 -16 2 -27 4 -25 26 29 156
223 154 229 -2 5 -38 -32 -80 -83z"/>
<path d="M1201 630 c0 -14 4 -79 9 -145 5 -66 10 -146 11 -178 2 -39 7 -61 16
-64 8 -3 16 -4 18 -1 3 2 -8 96 -24 209 -16 112 -29 193 -30 179z"/>
<path d="M1251 634 c0 -11 3 -14 6 -6 3 7 2 16 -1 19 -3 4 -6 -2 -5 -13z"/>
<path d="M1153 605 c0 -22 2 -30 4 -17 2 12 2 30 0 40 -3 9 -5 -1 -4 -23z"/>
<path d="M1281 624 c0 -11 3 -14 6 -6 3 7 2 16 -1 19 -3 4 -6 -2 -5 -13z"/>
<path d="M912 606 c-7 -15 -12 -35 -12 -44 1 -9 7 -2 16 17 17 41 14 66 -4 27z"/>
<path d="M1070 437 c-21 -157 -23 -193 -12 -195 7 -2 15 -2 17 0 4 5 27 379
23 383 -2 2 -15 -83 -28 -188z"/>
<path d="M1231 610 c0 -8 8 -89 19 -180 11 -91 20 -171 20 -177 0 -7 9 -13 20
-13 16 0 19 5 15 23 -3 12 -21 99 -39 192 -19 94 -34 163 -35 155z"/>
<path d="M1380 604 c0 -14 29 -84 34 -84 6 0 -10 55 -23 77 -6 10 -11 13 -11
7z"/>
<path d="M677 493 c-65 -87 -78 -109 -75 -135 3 -30 8 -24 81 90 43 67 77 128
75 135 -2 7 -38 -34 -81 -90z"/>
<path d="M1032 427 c-18 -94 -32 -175 -32 -179 0 -5 7 -8 15 -8 8 0 16 13 19
33 11 65 37 319 34 323 -3 2 -19 -74 -36 -169z"/>
<path d="M1173 587 c4 -10 7 -93 7 -183 0 -139 2 -164 15 -164 18 0 19 26 2
212 -7 76 -17 141 -22 145 -4 4 -5 0 -2 -10z"/>
<path d="M1552 563 c3 -10 36 -65 74 -123 62 -94 69 -102 72 -77 3 22 -12 49
-67 123 -71 94 -88 110 -79 77z"/>
<path d="M1146 518 c-3 -23 -7 -96 -8 -161 -3 -104 -1 -117 14 -117 16 0 16
14 11 158 -3 86 -7 159 -9 160 -1 2 -5 -16 -8 -40z"/>
<path d="M689 433 c-79 -117 -89 -134 -89 -165 0 -22 1 -22 25 7 41 50 137
223 133 241 -2 10 -28 -22 -69 -83z"/>
<path d="M1560 489 c0 -25 87 -180 120 -214 20 -19 20 -19 20 7 0 21 -96 181
-136 227 -2 2 -4 -7 -4 -20z"/>
<path d="M708 383 c-40 -67 -68 -123 -68 -139 0 -11 24 -2 37 14 31 39 84 155
81 178 -2 21 -11 12 -50 -53z"/>
<path d="M1560 405 c0 -45 69 -165 95 -165 12 0 12 5 3 28 -15 34 -89 162 -94
162 -2 0 -4 -11 -4 -25z"/>
<path d="M732 332 c-41 -77 -44 -92 -21 -92 25 0 51 58 47 104 l-3 31 -23 -43z"/>
<path d="M1560 313 c0 -54 8 -73 32 -73 22 0 19 19 -13 80 l-18 35 -1 -42z"/>
</g>
</svg>
